<svg preserveAspectRatio="none" overflow="visible" style="display: block;" width="20" height="20" viewBox="0 0 20 20" fill="none" xmlns="http://www.w3.org/2000/svg">
<g id="&#230;&#151;&#182;&#233;&#151;&#180; 3">
<path id="Vector" d="M10 18.1633C5.5 18.1633 1.83673 14.5 1.83673 10C1.83673 5.5 5.5 1.83673 10 1.83673C14.5 1.83673 18.1633 5.5 18.1633 10C18.1633 14.5 14.5 18.1633 10 18.1633ZM10 2.65306C5.94898 2.65306 2.65306 5.94898 2.65306 10C2.65306 14.051 5.94898 17.3469 10 17.3469C14.051 17.3469 17.3469 14.051 17.3469 10C17.3469 5.94898 14.051 2.65306 10 2.65306Z" fill="#333333" fill-opacity="0.6"/>
<path id="Vector_2" d="M12.6667 11H9.33333C9.15 11 9 10.775 9 10.5C9 10.225 9.15 10 9.33333 10H12.6667C12.85 10 13 10.225 13 10.5C13 10.775 12.85 11 12.6667 11Z" fill="#333333" fill-opacity="0.6"/>
<path id="Vector_3" d="M9.5 11C9.225 11 9 10.8138 9 10.5862V5.41379C9 5.18621 9.225 5 9.5 5C9.775 5 10 5.18621 10 5.41379V10.5862C10 10.8138 9.775 11 9.5 11Z" fill="#333333" fill-opacity="0.6"/>
</g>
</svg>
